 <svg
          width="92"
          height="17"
          viewBox="0 0 92 17"
          fill="none"
          xmlns="http://www.w3.org/2000/svg">
          <path
            d="M0 3.4L0 12.6C0 14.4778 1.52223 16 3.4 16H16.6C18.4778 16 20 14.4778 20 12.6V3.4C20 1.52223 18.4778 0 16.6 0L3.4 0C1.52223 0 0 1.52223 0 3.4Z"
            fill="#111111"
          />
          <path
            d="M0 3.4L0 12.6C0 14.4778 1.52223 16 3.4 16H16.6C18.4778 16 20 14.4778 20 12.6V3.4C20 1.52223 18.4778 0 16.6 0L3.4 0C1.52223 0 0 1.52223 0 3.4Z"
            fill="url(#paint0_linear_1575_857)"
          />
          <path
            d="M5 4C5 3.44772 4.55228 3 4 3C3.44772 3 3 3.44772 3 4C3 4.55228 3.44772 5 4 5C4.55228 5 5 4.55228 5 4Z"
            fill="url(#paint1_linear_1575_857)"
          />
          <path
            d="M5 4C5 3.44772 4.55228 3 4 3C3.44772 3 3 3.44772 3 4C3 4.55228 3.44772 5 4 5C4.55228 5 5 4.55228 5 4Z"
            fill="url(#paint2_linear_1575_857)"
          />
          <path
            d="M5 4C5 3.44772 4.55228 3 4 3C3.44772 3 3 3.44772 3 4C3 4.55228 3.44772 5 4 5C4.55228 5 5 4.55228 5 4Z"
            fill="url(#paint3_linear_1575_857)"
          />
          <path
            d="M5 11.9932C5 11.4409 4.55228 10.9932 4 10.9932C3.44772 10.9932 3 11.4409 3 11.9932C3 12.5454 3.44772 12.9932 4 12.9932C4.55228 12.9932 5 12.5454 5 11.9932Z"
            fill="url(#paint4_linear_1575_857)"
          />
          <path
            d="M17 8C17 7.44772 16.5523 7 16 7C15.4477 7 15 7.44772 15 8C15 8.55228 15.4477 9 16 9C16.5523 9 17 8.55228 17 8Z"
            fill="url(#paint5_linear_1575_857)"
          />
          <path
            d="M17 8C17 7.44772 16.5523 7 16 7C15.4477 7 15 7.44772 15 8C15 8.55228 15.4477 9 16 9C16.5523 9 17 8.55228 17 8Z"
            fill="url(#paint6_linear_1575_857)"
          />
          <path
            d="M16 3H8C7.44772 3 7 3.44772 7 4C7 4.55228 7.44772 5 8 5H16C16.5523 5 17 4.55228 17 4C17 3.44772 16.5523 3 16 3Z"
            fill="url(#paint7_linear_1575_857)"
          />
          <path
            d="M16 10.9932H8C7.44772 10.9932 7 11.4409 7 11.9932C7 12.5454 7.44772 12.9932 8 12.9932H16C16.5523 12.9932 17 12.5454 17 11.9932C17 11.4409 16.5523 10.9932 16 10.9932Z"
            fill="url(#paint8_linear_1575_857)"
          />
          <path
            d="M12 7H4C3.44772 7 3 7.44772 3 8C3 8.55228 3.44772 9 4 9H12C12.5523 9 13 8.55228 13 8C13 7.44772 12.5523 7 12 7Z"
            fill="url(#paint9_linear_1575_857)"
          />
          <path
            d="M26.275 13.18C25.425 13.18 24.66 13.005 23.98 12.655C23.3 12.305 22.8 11.84 22.48 11.26L23.86 10.165C24.45 11.075 25.275 11.53 26.335 11.53C26.845 11.53 27.26 11.41 27.58 11.17C27.9 10.92 28.06 10.6 28.06 10.21C28.06 9.5 27.555 8.96 26.545 8.59L25.375 8.17C24.515 7.86 23.88 7.465 23.47 6.985C23.06 6.495 22.855 5.89 22.855 5.17C22.855 4.26 23.18 3.535 23.83 2.995C24.48 2.445 25.31 2.17 26.32 2.17C27.67 2.17 28.745 2.655 29.545 3.625L28.33 4.81C27.78 4.15 27.105 3.82 26.305 3.82C25.835 3.82 25.435 3.93 25.105 4.15C24.785 4.37 24.625 4.67 24.625 5.05C24.625 5.42 24.745 5.715 24.985 5.935C25.235 6.145 25.655 6.36 26.245 6.58L27.325 6.985C28.145 7.295 28.77 7.7 29.2 8.2C29.63 8.7 29.84 9.335 29.83 10.105C29.83 11.025 29.5 11.77 28.84 12.34C28.18 12.9 27.325 13.18 26.275 13.18ZM34.9229 13.15C33.7829 13.15 32.8429 12.785 32.1029 12.055C31.3729 11.325 31.0079 10.39 31.0079 9.25C31.0079 8.14 31.3779 7.215 32.1179 6.475C32.8579 5.725 33.7929 5.35 34.9229 5.35C35.9629 5.35 36.8229 5.68 37.5029 6.34C38.1929 7 38.5379 7.91 38.5379 9.07C38.5379 9.27 38.5329 9.45 38.5229 9.61H32.6279C32.6679 10.22 32.9029 10.715 33.3329 11.095C33.7629 11.465 34.2979 11.65 34.9379 11.65C35.8979 11.65 36.6129 11.27 37.0829 10.51L38.3429 11.41C37.6229 12.57 36.4829 13.15 34.9229 13.15ZM32.7029 8.41H36.8729C36.7829 7.89 36.5479 7.485 36.1679 7.195C35.7979 6.895 35.3629 6.745 34.8629 6.745C34.3429 6.745 33.8779 6.89 33.4679 7.18C33.0679 7.47 32.8129 7.88 32.7029 8.41ZM47.359 16.135H45.709V11.995C45.479 12.315 45.149 12.59 44.719 12.82C44.289 13.04 43.819 13.15 43.309 13.15C42.289 13.15 41.429 12.77 40.729 12.01C40.039 11.25 39.694 10.33 39.694 9.25C39.694 8.17 40.039 7.25 40.729 6.49C41.429 5.73 42.289 5.35 43.309 5.35C43.819 5.35 44.289 5.465 44.719 5.695C45.149 5.915 45.479 6.185 45.709 6.505V5.5H47.359V16.135ZM42.004 10.96C42.424 11.42 42.959 11.65 43.609 11.65C44.259 11.65 44.794 11.42 45.214 10.96C45.634 10.5 45.844 9.93 45.844 9.25C45.844 8.57 45.634 8 45.214 7.54C44.794 7.08 44.259 6.85 43.609 6.85C42.959 6.85 42.424 7.08 42.004 7.54C41.584 8 41.374 8.57 41.374 9.25C41.374 9.93 41.584 10.5 42.004 10.96ZM52.2794 13.15C51.4194 13.15 50.7394 12.865 50.2394 12.295C49.7394 11.715 49.4894 10.945 49.4894 9.985V5.5H51.1394V9.715C51.1394 10.315 51.2694 10.79 51.5294 11.14C51.7894 11.48 52.1594 11.65 52.6394 11.65C53.1994 11.65 53.6444 11.44 53.9744 11.02C54.3044 10.59 54.4694 9.98 54.4694 9.19V5.5H56.1194V13H54.4694V11.98C54.0294 12.76 53.2994 13.15 52.2794 13.15ZM61.7295 13.15C60.5895 13.15 59.6495 12.785 58.9095 12.055C58.1795 11.325 57.8145 10.39 57.8145 9.25C57.8145 8.14 58.1845 7.215 58.9245 6.475C59.6645 5.725 60.5995 5.35 61.7295 5.35C62.7695 5.35 63.6295 5.68 64.3095 6.34C64.9995 7 65.3445 7.91 65.3445 9.07C65.3445 9.27 65.3395 9.45 65.3295 9.61H59.4345C59.4745 10.22 59.7095 10.715 60.1395 11.095C60.5695 11.465 61.1045 11.65 61.7445 11.65C62.7045 11.65 63.4195 11.27 63.8895 10.51L65.1495 11.41C64.4295 12.57 63.2895 13.15 61.7295 13.15ZM59.5095 8.41H63.6795C63.5895 7.89 63.3545 7.485 62.9745 7.195C62.6045 6.895 62.1695 6.745 61.6695 6.745C61.1495 6.745 60.6845 6.89 60.2745 7.18C59.8745 7.47 59.6195 7.88 59.5095 8.41ZM67.0407 13V5.5H68.6907V6.52C69.1607 5.74 69.9207 5.35 70.9707 5.35C71.8407 5.35 72.5357 5.635 73.0557 6.205C73.5757 6.775 73.8357 7.535 73.8357 8.485V13H72.1857V8.755C72.1857 8.155 72.0457 7.69 71.7657 7.36C71.4857 7.02 71.1057 6.85 70.6257 6.85C70.0557 6.85 69.5907 7.065 69.2307 7.495C68.8707 7.925 68.6907 8.53 68.6907 9.31V13H67.0407ZM79.3669 13.15C78.2369 13.15 77.2919 12.78 76.5319 12.04C75.7819 11.29 75.4069 10.36 75.4069 9.25C75.4069 8.14 75.7819 7.215 76.5319 6.475C77.2919 5.725 78.2369 5.35 79.3669 5.35C80.1369 5.35 80.8269 5.535 81.4369 5.905C82.0569 6.275 82.5319 6.78 82.8619 7.42L81.4219 8.2C81.2319 7.8 80.9569 7.48 80.5969 7.24C80.2369 7 79.8269 6.88 79.3669 6.88C78.7069 6.88 78.1619 7.11 77.7319 7.57C77.3019 8.02 77.0869 8.58 77.0869 9.25C77.0869 9.92 77.3019 10.485 77.7319 10.945C78.1619 11.395 78.7069 11.62 79.3669 11.62C79.8269 11.62 80.2369 11.5 80.5969 11.26C80.9569 11.02 81.2319 10.7 81.4219 10.3L82.8619 11.08C82.5319 11.72 82.0569 12.225 81.4369 12.595C80.8269 12.965 80.1369 13.15 79.3669 13.15ZM87.7598 13.15C86.6198 13.15 85.6798 12.785 84.9398 12.055C84.2098 11.325 83.8448 10.39 83.8448 9.25C83.8448 8.14 84.2148 7.215 84.9548 6.475C85.6948 5.725 86.6298 5.35 87.7598 5.35C88.7998 5.35 89.6598 5.68 90.3398 6.34C91.0298 7 91.3748 7.91 91.3748 9.07C91.3748 9.27 91.3698 9.45 91.3598 9.61H85.4648C85.5048 10.22 85.7398 10.715 86.1698 11.095C86.5998 11.465 87.1348 11.65 87.7748 11.65C88.7348 11.65 89.4498 11.27 89.9198 10.51L91.1798 11.41C90.4598 12.57 89.3198 13.15 87.7598 13.15ZM85.5398 8.41H89.7098C89.6198 7.89 89.3848 7.485 89.0048 7.195C88.6348 6.895 88.1998 6.745 87.6998 6.745C87.1798 6.745 86.7148 6.89 86.3048 7.18C85.9048 7.47 85.6498 7.88 85.5398 8.41Z"
            fill="white"
          />
          <defs>
            <linearGradient
              id="paint0_linear_1575_857"
              x1="10"
              y1="2.04415e-06"
              x2="10"
              y2="16.0166"
              gradientUnits="userSpaceOnUse">
              <stop stop-color="#1D273D" />
              <stop offset="1" stop-color="#0D0F13" />
            </linearGradient>
            <linearGradient
              id="paint1_linear_1575_857"
              x1="3.30809"
              y1="4.9863"
              x2="4.66694"
              y2="3.16952"
              gradientUnits="userSpaceOnUse">
              <stop stop-color="#4462FE" />
              <stop offset="1" stop-color="#7D69FA" />
            </linearGradient>
            <linearGradient
              id="paint2_linear_1575_857"
              x1="3.17576"
              y1="5.00097"
              x2="4.85542"
              y2="4.91487"
              gradientUnits="userSpaceOnUse">
              <stop stop-color="#3757FD" />
              <stop offset="1" stop-color="#6980FA" />
            </linearGradient>
            <linearGradient
              id="paint3_linear_1575_857"
              x1="3.17576"
              y1="5.00097"
              x2="4.85542"
              y2="4.91487"
              gradientUnits="userSpaceOnUse">
              <stop stop-color="#2447FF" />
              <stop offset="1" stop-color="#6980FA" />
            </linearGradient>
            <linearGradient
              id="paint4_linear_1575_857"
              x1="3.28283"
              y1="12.6667"
              x2="4.61734"
              y2="11.2528"
              gradientUnits="userSpaceOnUse">
              <stop stop-color="#A792FF" />
              <stop offset="1" stop-color="#A48EFF" />
            </linearGradient>
            <linearGradient
              id="paint5_linear_1575_857"
              x1="15.404"
              y1="8.66307"
              x2="16.6378"
              y2="7.35016"
              gradientUnits="userSpaceOnUse">
              <stop stop-color="#29BDFF" />
              <stop offset="1" stop-color="#96E7FB" />
            </linearGradient>
            <linearGradient
              id="paint6_linear_1575_857"
              x1="15.1606"
              y1="8.9863"
              x2="16.8973"
              y2="8.90297"
              gradientUnits="userSpaceOnUse">
              <stop stop-color="#23BBFF" />
              <stop offset="1" stop-color="#85E7FF" />
            </linearGradient>
            <linearGradient
              id="paint7_linear_1575_857"
              x1="7.80303"
              y1="4.9863"
              x2="16.0329"
              y2="3.01178"
              gradientUnits="userSpaceOnUse">
              <stop stop-color="#23BBFF" />
              <stop offset="1" stop-color="#85E7FF" />
            </linearGradient>
            <linearGradient
              id="paint8_linear_1575_857"
              x1="7.87878"
              y1="12.9941"
              x2="15.7802"
              y2="10.9691"
              gradientUnits="userSpaceOnUse">
              <stop stop-color="#2447FF" />
              <stop offset="1" stop-color="#6980FA" />
            </linearGradient>
            <linearGradient
              id="paint9_linear_1575_857"
              x1="4.34344"
              y1="9.01564"
              x2="11.8912"
              y2="6.99063"
              gradientUnits="userSpaceOnUse">
              <stop stop-color="#6634FF" />
              <stop offset="1" stop-color="#9C6DFF" />
            </linearGradient>
          </defs>
        </svg>